<svg xmlns="http://www.w3.org/2000/svg" xmlns:xlink="http://www.w3.org/1999/xlink" id="Layer_1" data-name="Layer 1"
     viewBox="0 0 511.82 511.86">
    <defs>
        <style>
            .cls-1{fill:none;}.cls-2{fill:#fff;}.cls-3{fill:#231f20;}.cls-4{clip-path:url(#clip-path);}.cls-5{fill:#e8002a}.cls-6{fill:#1d191a;}
        </style>
        <clipPath id="clip-path" transform="translate(-0.14 -0.14)">
            <path class="cls-1"
                  d="M28.49,19.59a8.62,8.62,0,0,0-8.57,9.28l36.4,459.07a5,5,0,0,0,5.06,4.67H450.71a5.14,5.14,0,0,0,5.06-4.67l36.4-459.07a8.63,8.63,0,0,0-8.57-9.28Z"/>
        </clipPath>
    </defs>
    <title>photos5</title>
    <g class="cls-4">
        <rect class="cls-5" x="6.28" y="9.66" width="124.83" height="350.24"/>
    </g>
    <g xmlns="http://www.w3.org/2000/svg" class="cls-4">
        <rect class="cls-5" x="380.76" y="9.66" width="124.83" height="350.24"/>
    </g>
    <g xmlns="http://www.w3.org/2000/svg" transform="translate(100.000000,420.000000) scale(0.06000,-0.0600000)"
       fill="#A3080C" stroke="none">
        <path d="M2510 6541 c-50 -29 -181 -54 -285 -55 -101 -1 -114 -3 -161 -29 -29 -16 -62 -43 -75 -60 -42 -58 -101 -117 -110 -111 -14 8 -105 -24 -182 -64 -54 -28 -84 -53 -147 -126 -43 -50 -96 -104 -117 -120 -49 -38 -173 -176 -225 -252 -22 -32 -55 -88 -72 -124 -28 -59 -31 -73 -30 -160 0 -52 3 -120 5 -151 4 -52 1 -61 -30 -104 -52 -73 -83 -144 -88 -205 -5 -49 -2 -61 25 -104 21 -32 33 -67 37 -105 13 -106 23 -131 82 -187 53 -51 54 -54 39 -76 -12 -17 -14 -37 -10 -88 5 -54 3 -69 -10 -83 -20 -20 -46 -23 -46 -5 0 6 7 40 16 75 21 86 14 109 -36 123 -21 6 -42 15 -45 21 -11 18 -35 -11 -35 -43 0 -16 7 -43 16 -60 14 -28 15 -44 5 -132 -6 -56 -21 -137 -32 -181 -32 -128 -35 -204 -11 -277 11 -35 26 -92 33 -128 10 -60 68 -191 110 -250 9 -14 49 -45 87 -68 64 -38 73 -40 102 -31 32 12 65 61 57 83 -4 9 -36 15 -96 18 -50 3 -97 11 -105 17 -7 6 -36 57 -64 114 -47 93 -78 193 -89 288 -5 38 27 157 52 196 8 12 20 57 26 99 l12 78 25 -30 c13 -16 41 -47 62 -69 31 -34 40 -54 54 -119 22 -108 22 -115 -9 -86 l-25 24 -43 -24 c-53 -29 -77 -50 -77 -66 0 -19 57 -81 106 -114 l42 -30 25 20 c32 25 42 25 67 0 14 -14 20 -33 20 -61 0 -63 47 -283 75 -348 15 -36 28 -95 35 -161 15 -144 32 -203 79 -284 22 -38 63 -121 92 -185 29 -64 74 -160 101 -213 26 -54 48 -111 48 -127 0 -20 8 -36 24 -48 l24 -18 -44 -47 c-57 -61 -61 -110 -17 -185 33 -56 33 -121 -1 -201 -14 -34 -26 -70 -26 -80 0 -22 32 -58 58 -66 22 -7 42 -82 42 -156 0 -65 7 -80 39 -80 38 0 93 17 103 32 13 22 9 105 -13 229 -22 133 -19 164 28 227 40 54 46 43 38 -75 -8 -129 1 -127 39 7 33 115 73 208 96 220 15 8 18 2 24 -52 7 -69 18 -88 52 -88 37 0 45 36 38 163 -4 76 -13 126 -25 156 -11 24 -19 47 -19 51 0 5 23 11 50 15 28 4 50 11 50 16 0 5 -7 9 -15 9 -25 0 -198 85 -217 106 -22 26 -12 122 16 138 14 9 20 7 30 -8 32 -54 76 -103 106 -121 19 -11 59 -46 90 -78 34 -35 63 -57 77 -57 12 0 59 23 105 50 46 28 90 54 98 59 8 4 27 39 41 77 49 132 66 143 99 65 24 -55 75 -110 89 -95 4 5 14 30 21 57 12 46 14 47 51 47 47 0 52 19 12 56 -36 34 -62 38 -149 25 -41 -6 -92 -11 -112 -11 -35 0 -415 120 -407 128 2 3 19 8 37 12 27 6 43 1 86 -22 42 -24 60 -29 88 -23 l35 6 -31 29 c-18 16 -30 35 -28 42 7 19 136 29 169 12 27 -14 62 -9 134 19 52 20 242 30 285 16 23 -8 47 -8 92 1 40 8 64 8 70 2 6 -6 16 -37 22 -69 11 -52 15 -59 44 -69 53 -17 58 -29 30 -63 -24 -27 -25 -33 -15 -83 5 -29 16 -59 23 -67 12 -13 16 -9 30 24 10 25 14 52 10 76 -5 32 -1 44 29 84 20 25 33 50 30 55 -4 6 -22 10 -41 10 -39 0 -40 2 -18 35 16 24 15 27 -10 60 -15 19 -31 35 -36 35 -4 0 -13 23 -20 50 -8 34 -21 57 -39 70 -29 22 -29 22 -70 70 -29 34 -29 35 -50 16 -12 -11 -26 -36 -31 -58 -6 -21 -15 -38 -21 -38 -5 0 -19 16 -30 35 -12 19 -25 32 -30 29 -6 -3 -7 11 -3 35 4 27 3 41 -5 41 -12 0 -41 -63 -41 -91 0 -15 -8 -19 -40 -19 -36 0 -40 3 -40 25 0 30 -9 31 -60 5 -22 -11 -40 -16 -40 -10 0 15 -61 50 -89 50 -13 0 -37 -14 -56 -32 -50 -50 -112 -98 -127 -98 -8 0 -19 -5 -26 -12 -19 -19 -24 -5 -37 94 l-11 93 -45 -47 c-24 -26 -57 -52 -73 -58 -28 -10 -29 -10 -22 20 3 16 9 44 13 61 l6 32 -33 -19 c-83 -48 -158 -137 -174 -205 -4 -21 -17 -30 -64 -47 -34 -13 -72 -36 -92 -57 -37 -39 -41 -55 -56 -257 -7 -96 -6 -99 25 -168 27 -57 30 -73 21 -91 l-12 -21 -25 24 c-14 12 -41 45 -61 73 l-37 49 0 111 c0 60 5 162 11 226 12 136 20 151 124 234 57 45 69 61 79 99 14 58 14 59 -6 41 -130 -113 -148 -125 -201 -141 -122 -35 -150 -32 -205 21 -47 46 -48 84 -7 217 23 73 43 113 85 171 30 41 55 82 55 91 0 9 -41 55 -91 103 -50 49 -97 99 -104 113 -7 14 -15 84 -19 162 -6 132 -7 139 -40 200 -64 117 -79 218 -32 218 7 0 25 9 39 20 14 11 30 20 36 20 6 0 27 -24 45 -52 19 -29 46 -68 60 -87 15 -21 26 -48 26 -67 0 -17 7 -37 15 -44 22 -18 161 -26 179 -11 8 7 17 38 21 71 4 33 13 64 21 71 9 7 36 9 79 5 228 -21 215 -25 215 47 0 47 21 46 31 -1 9 -43 26 -62 58 -62 14 0 40 -9 56 -20 17 -11 40 -20 52 -20 21 0 21 1 7 35 -15 37 -19 75 -6 75 15 0 62 -52 62 -69 0 -10 7 -35 16 -56 8 -21 13 -44 10 -51 -8 -21 4 -44 23 -44 9 0 31 15 49 33 l32 33 0 133 c0 132 0 132 -27 157 -108 99 -193 186 -189 193 3 5 1 34 -5 64 -11 52 -14 56 -53 71 -22 8 -81 24 -129 35 -49 10 -96 26 -105 34 -38 32 -59 37 -114 26 -36 -7 -60 -19 -74 -36 -19 -22 -33 -27 -105 -34 -126 -12 -135 -11 -167 15 -27 24 -29 30 -40 153 -12 130 -18 190 -28 298 -4 43 -1 74 11 110 10 29 20 100 24 171 l6 122 100 97 c55 53 112 103 126 110 14 8 62 23 107 34 97 24 133 41 161 77 37 47 29 59 -48 79 l-46 12 49 8 c27 4 111 5 187 3 l139 -5 -49 34 c-45 32 -48 36 -37 58 6 14 15 25 20 25 5 0 38 -16 74 -35 63 -35 65 -35 86 -18 11 10 22 18 24 19 2 1 -7 18 -19 38 -15 26 -17 36 -7 36 29 0 77 -41 96 -82 25 -56 64 -92 90 -84 11 4 38 20 61 36 46 34 51 57 27 145 -19 73 -11 82 37 42 23 -18 48 -37 55 -41 21 -13 41 24 42 76 0 26 4 49 8 52 5 3 25 -6 45 -19 34 -24 78 -34 76 -17 0 4 -21 25 -45 46 -43 38 -50 40 -182 62 -143 24 -246 29 -272 15z m-402 -1811 c23 -26 34 -30 77 -31 95 -1 121 -10 155 -58 26 -35 31 -50 27 -77 -5 -32 -3 -35 39 -53 41 -19 44 -22 44 -60 0 -36 -3 -40 -27 -43 -16 -2 -51 6 -78 18 -80 35 -151 45 -220 34 -75 -12 -185 -13 -204 -1 -8 5 -22 24 -30 43 -15 30 -20 33 -61 33 -31 1 -55 8 -77 25 -64 46 -52 70 47 100 37 11 75 29 85 40 15 17 26 19 70 14 46 -6 54 -4 80 20 35 33 41 33 73 -4z"/>
        <path d="M3227 6358 c-3 -35 -8 -75 -12 -89 -10 -39 12 -111 33 -107 14 3 16 14 14 61 -3 52 -1 57 21 62 13 4 43 2 65 -4 59 -16 96 2 88 42 -3 16 -6 34 -6 39 0 5 -20 8 -45 7 -29 -2 -50 2 -62 13 -24 21 -58 38 -76 38 -11 0 -17 -16 -20 -62z"/>
        <path d="M3053 6388 c-15 -17 -22 -42 -26 -93 l-5 -69 39 -39 c30 -31 43 -37 61 -32 35 11 47 24 54 60 5 28 -2 46 -43 114 -26 44 -51 80 -54 81 -3 0 -15 -10 -26 -22z"/>
        <path d="M3535 6270 c-3 -5 19 -23 49 -40 50 -28 72 -49 128 -118 9 -11 49 -42 88 -68 61 -40 71 -50 68 -73 -5 -44 -35 -38 -88 17 -31 33 -73 62 -123 86 l-76 36 -66 -14 c-36 -8 -68 -16 -71 -19 -10 -10 137 -89 176 -94 52 -7 60 -21 26 -49 -20 -18 -34 -22 -59 -17 l-32 6 19 -21 c10 -12 42 -36 70 -53 138 -86 160 -111 177 -205 6 -32 19 -73 30 -90 19 -32 81 -434 94 -619 4 -49 20 -180 37 -290 16 -110 33 -252 36 -315 6 -99 9 -115 25 -118 10 -2 30 10 47 28 37 40 39 85 9 200 -24 93 -17 116 36 126 42 8 60 -4 75 -52 12 -35 25 -44 33 -21 2 6 2 104 0 217 -5 234 -18 297 -84 438 -22 47 -42 103 -45 126 -5 46 6 98 24 104 14 4 46 -59 62 -125 6 -29 17 -53 24 -53 7 0 22 17 34 39 35 62 25 198 -17 235 -9 7 -45 19 -80 25 -71 12 -86 22 -96 64 -9 35 5 35 41 -2 29 -28 89 -55 104 -46 4 3 10 14 13 25 4 17 -4 27 -42 50 -48 30 -86 89 -86 135 0 16 -22 29 -119 68 -129 52 -176 80 -176 104 0 13 12 15 75 11 65 -4 80 -9 103 -32 30 -28 62 -35 62 -12 0 26 -73 109 -129 145 -32 20 -56 41 -54 47 2 6 -16 38 -41 71 -37 50 -50 62 -83 67 -21 4 -66 25 -101 47 -64 40 -86 46 -97 29z"/>
        <path d="M3478 4950 c-21 -4 -47 -15 -58 -25 -10 -9 -39 -21 -64 -26 -24 -4 -64 -17 -88 -28 -39 -18 -112 -39 -193 -56 l-30 -7 55 -34 c53 -34 57 -35 140 -32 47 2 137 14 202 26 l116 23 116 -114 c133 -130 136 -130 136 -10 0 86 -14 113 -64 127 -33 9 -41 17 -48 44 -5 17 -20 40 -34 49 -15 9 -39 29 -54 45 -30 29 -56 33 -132 18z"/>
        <path d="M3018 4543 c-67 -71 -102 -201 -63 -233 13 -11 20 -9 44 14 32 31 57 27 72 -11 8 -22 13 -24 66 -21 l58 3 -3 36 c-2 25 2 38 12 42 21 8 36 -22 25 -50 -8 -21 -6 -23 25 -23 18 0 77 14 131 30 114 35 138 37 173 11 66 -46 88 -52 126 -36 26 11 42 13 55 6 12 -7 22 -6 29 1 18 18 15 32 -12 57 l-25 23 21 28 c26 36 20 62 -17 73 -27 8 -35 4 -68 -26 -32 -31 -36 -40 -31 -66 4 -17 4 -31 0 -31 -24 0 -85 37 -132 78 -55 49 -55 49 -140 55 -99 6 -167 -10 -202 -48 -23 -25 -75 -34 -87 -16 -3 5 2 30 10 54 8 25 12 52 9 61 -9 25 -47 19 -76 -11z"/>
        <path d="M4254 4406 c-3 -7 3 -53 13 -102 12 -63 17 -133 16 -237 -1 -139 0 -147 16 -133 12 11 21 45 29 105 16 118 15 171 -3 216 -9 20 -19 65 -22 101 -5 54 -9 64 -25 64 -10 0 -21 -6 -24 -14z"/>
        <path d="M4135 4147 c-3 -18 -5 -66 -3 -107 l3 -75 13 40 c7 22 15 67 19 101 5 50 3 62 -10 67 -12 5 -18 -2 -22 -26z"/>
        <path d="M3963 3998 c-17 -90 -46 -203 -63 -251 -29 -80 -41 -98 -115 -177 -46 -49 -86 -99 -90 -111 -9 -27 22 -60 72 -78 21 -8 57 -25 80 -38 36 -21 43 -30 48 -67 4 -27 0 -76 -10 -127 -15 -72 -23 -90 -56 -126 -31 -34 -39 -50 -39 -80 0 -80 -12 -111 -62 -167 -32 -36 -74 -68 -119 -92 -78 -41 -92 -58 -87 -112 3 -35 5 -37 40 -40 20 -2 53 4 73 12 21 9 46 16 56 16 27 0 44 -41 30 -68 -16 -30 -13 -64 9 -92 l19 -25 30 35 c38 44 38 73 1 143 -16 31 -30 61 -30 67 0 20 40 9 56 -16 27 -40 39 -14 39 84 1 72 7 105 37 192 37 110 52 203 64 413 4 64 10 117 14 117 10 0 41 -36 54 -62 8 -15 24 -25 49 -29 45 -7 89 18 116 66 9 17 32 51 51 76 26 34 40 68 54 128 29 127 3 122 -63 -12 -59 -118 -93 -153 -158 -161 l-53 -7 0 78 c0 42 7 119 17 170 l16 93 42 0 c51 0 52 3 47 113 l-4 79 -42 -4 -43 -3 -12 85 c-7 47 -18 98 -24 113 -11 25 -15 13 -44 -135z"/>
        <path d="M2210 4128 c-25 -5 -94 -7 -155 -3 l-110 5 30 -25 c42 -36 68 -45 131 -45 57 0 99 16 147 56 31 26 26 27 -43 12z"/>
        <path d="M2292 3689 c-62 -39 -121 -82 -130 -96 -9 -13 -32 -45 -51 -70 -38 -51 -61 -131 -60 -208 l1 -50 12 55 c17 77 38 113 112 188 43 45 65 61 68 51 2 -8 10 -32 17 -54 6 -22 20 -57 31 -78 17 -34 23 -38 46 -32 14 3 39 16 54 27 33 23 50 21 153 -16 84 -31 217 -35 341 -11 43 8 87 12 96 9 10 -3 34 0 54 6 30 10 35 16 32 38 -2 16 -13 32 -30 41 -24 14 -36 13 -116 -2 -130 -25 -196 -23 -236 8 -46 35 -89 42 -123 20 -22 -15 -39 -17 -107 -11 -44 4 -86 12 -93 18 -18 15 -16 93 3 130 16 31 45 108 41 108 -2 0 -54 -32 -115 -71z"/>
        <path d="M3110 3685 c0 -3 30 -37 67 -75 36 -39 89 -100 117 -137 l51 -66 3 33 c2 18 1 44 -3 58 -10 41 -114 142 -173 168 -55 25 -62 27 -62 19z"/>
        <path d="M2564 3302 c-6 -4 -21 -23 -33 -42 -33 -55 -26 -160 11 -160 4 0 12 19 18 43 6 23 16 52 21 63 8 16 8 28 -1 44 -6 12 -10 31 -7 41 6 22 6 21 -9 11z"/>
        <path d="M3886 2492 c-9 -26 57 -160 127 -257 43 -60 69 -84 176 -156 72 -49 169 -104 226 -129 55 -23 172 -79 260 -123 139 -69 229 -107 259 -107 17 0 -40 38 -112 74 -40 20 -117 63 -170 94 -53 32 -140 73 -192 91 -293 104 -398 193 -521 440 -37 75 -48 90 -53 73z"/>
        <path d="M1728 2392 c-28 -16 -33 -27 -103 -232 l-26 -75 -192 -66 c-106 -37 -223 -80 -262 -96 -38 -16 -114 -42 -169 -58 -93 -26 -222 -74 -201 -74 36 -1 258 67 405 124 252 98 299 113 381 127 41 6 81 19 90 27 9 9 31 74 48 145 17 71 38 137 47 147 9 10 14 24 12 33 -3 13 -6 13 -30 -2z"/>
        <path d="M3113 2341 c-27 -13 -55 -38 -79 -71 -39 -54 -36 -54 -88 -7 -33 29 -41 21 -40 -37 1 -53 0 -56 -51 -109 l-53 -55 1 -65 c2 -61 0 -68 -30 -99 -48 -50 -66 -100 -53 -148 6 -21 18 -46 26 -55 23 -23 41 -4 60 61 8 30 20 54 25 54 11 0 3 -81 -14 -145 -6 -22 -11 -67 -12 -100 -1 -53 -4 -61 -26 -72 -13 -7 -36 -13 -51 -13 -16 0 -28 -2 -28 -5 0 -19 36 -85 67 -124 32 -38 38 -53 39 -95 1 -74 42 -212 72 -248 45 -53 145 -87 158 -54 3 8 -8 32 -25 53 -43 54 -111 204 -111 245 0 27 5 37 24 46 41 18 49 102 25 273 -11 79 -18 152 -14 163 3 12 27 36 53 55 26 18 62 55 79 82 39 57 110 108 271 191 135 70 138 72 159 111 21 42 5 49 -87 43 -41 -3 -92 -1 -113 5 -54 15 -105 63 -109 102 -4 39 -20 43 -75 18z"/>
        <path d="M2259 1963 c0 -5 -2 -59 -4 -121 -3 -86 -1 -112 8 -109 7 2 11 16 9 31 -2 15 7 55 19 90 22 61 22 65 6 90 -17 25 -36 34 -38 19z"/>
        <path d="M2175 1766 c-8 -120 -4 -148 31 -189 23 -28 31 -68 18 -101 -9 -23 -31 -20 -49 8 -14 21 -112 83 -119 74 -2 -1 -8 -18 -14 -37 -11 -32 -10 -36 33 -90 25 -31 58 -75 74 -98 36 -50 81 -65 112 -37 17 15 19 31 19 134 0 114 -1 117 -30 156 -21 27 -30 51 -30 79 -1 43 -26 194 -33 202 -3 2 -8 -43 -12 -101z"/>
        <path d="M3989 1813 c-24 -66 -83 -175 -112 -208 -18 -19 -47 -43 -66 -53 -19 -9 -37 -23 -39 -29 -10 -33 87 5 140 54 37 35 81 138 88 206 3 31 4 57 3 57 -2 0 -8 -12 -14 -27z"/>
        <path d="M2390 1649 c0 -9 7 -56 15 -105 11 -62 23 -98 41 -121 37 -49 56 -100 54 -152 -1 -25 -1 -50 -1 -55 2 -20 34 22 60 78 21 46 36 66 64 81 43 23 56 53 64 146 4 46 2 68 -6 74 -21 12 -50 -25 -67 -87 -9 -32 -21 -61 -26 -64 -5 -3 -25 7 -45 23 -19 15 -47 35 -62 44 -18 10 -28 27 -31 50 -5 37 -60 117 -60 88z"/>
        <path d="M1654 1532 c-41 -26 -90 -88 -150 -191 -44 -75 -153 -201 -174 -201 -16 0 -30 -61 -19 -81 15 -29 48 -23 109 18 47 32 65 38 123 41 l67 4 49 62 c27 34 57 82 67 107 22 58 40 74 94 87 37 9 49 8 68 -4 40 -26 54 -99 33 -171 -5 -17 -7 -34 -4 -37 12 -12 63 26 69 52 3 15 12 49 20 76 7 26 10 54 6 61 -12 21 -134 128 -179 158 -58 37 -137 45 -179 19z"/>
        <path d="M2665 1179 c-8 -25 22 -99 41 -99 27 0 29 75 2 107 -16 19 -36 16 -43 -8z"/>
        <path d="M2305 1146 c-79 -37 -108 -74 -113 -146 -10 -143 52 -222 185 -236 112 -12 194 33 209 112 4 21 12 42 18 46 6 4 40 8 76 8 59 0 69 3 104 34 l40 33 -28 18 c-25 17 -35 17 -108 6 -44 -7 -81 -11 -83 -9 -1 2 -12 21 -23 43 -30 59 -64 86 -129 101 -78 18 -90 18 -148 -10z"/>
    </g>
</svg>
